HIERARCHY
ROOT Bip001_Pelvis
{
  OFFSET 34.4345 95.6767 -26.8758
  CHANNELS 6 Xposition Yposition Zposition Zrotation Xrotation Yrotation
  JOINT Bip001_Spine
  {
    OFFSET 1.4188e-005 10.2191 -0.0116013
    CHANNELS 3 Zrotation Xrotation Yrotation
    JOINT Bip001_L_Thigh
    {
      OFFSET 11.0458 -10.2192 0.0116197
      CHANNELS 3 Zrotation Xrotation Yrotation
      JOINT Bip001_L_Calf
      {
        OFFSET -0.707118 -44.0221 0.360014
        CHANNELS 3 Zrotation Xrotation Yrotation
        JOINT Bip001_L_Foot
        {
          OFFSET -0.651902 -40.5938 -3.56146
          CHANNELS 3 Zrotation Xrotation Yrotation
          JOINT Bip001_L_Toe0
          {
            OFFSET 0.0530839 -10.2181 13.1504
            CHANNELS 3 Zrotation Xrotation Yrotation
            End Site
            {
              OFFSET -1.02532e-005 0 7.55606
            }
          }
        }
      }
    }
    JOINT Bip001_R_Thigh
    {
      OFFSET -11.0458 -10.2191 0.0115893
      CHANNELS 3 Zrotation Xrotation Yrotation
      JOINT Bip001_R_Calf
      {
        OFFSET 0.706994 -44.0221 0.35984
        CHANNELS 3 Zrotation Xrotation Yrotation
        JOINT Bip001_R_Foot
        {
          OFFSET 0.651786 -40.5938 -3.5613
          CHANNELS 3 Zrotation Xrotation Yrotation
          JOINT Bip001_R_Toe0
          {
            OFFSET -0.0531479 -10.2181 13.1504
            CHANNELS 3 Zrotation Xrotation Yrotation
            End Site
            {
              OFFSET -1.02894e-005 0 7.55606
            }
          }
        }
      }
    }
    JOINT Bip001_Spine1
    {
      OFFSET 1.87041e-005 14.5736 1.08638
      CHANNELS 3 Zrotation Xrotation Yrotation
      JOINT Bip001_Spine2
      {
        OFFSET 2.24614e-005 14.5058 -1.69078
        CHANNELS 3 Zrotation Xrotation Yrotation
        JOINT Bip001_Neck
        {
          OFFSET 2.20278e-005 15.3945 -0.489414
          CHANNELS 3 Zrotation Xrotation Yrotation
          JOINT Bip001_L_Clavicle
          {
            OFFSET 6.06036 -0.000579998 0.00836775
            CHANNELS 3 Zrotation Xrotation Yrotation
            JOINT Bip001_L_UpperArm
            {
              OFFSET 11.5509 -0.0600302 0.00193952
              CHANNELS 3 Zrotation Xrotation Yrotation
              JOINT Bip001_L_Forearm
              {
                OFFSET 25.9523 0.0806089 -2.15551
                CHANNELS 3 Zrotation Xrotation Yrotation
                JOINT Bip001_L_Hand
                {
                  OFFSET 32.2475 0.153767 1.63968
                  CHANNELS 3 Zrotation Xrotation Yrotation
                  JOINT Bip001_L_Finger0
                  {
                    OFFSET 6.04639 -2.20976 5.90322
                    CHANNELS 3 Zrotation Xrotation Yrotation
                    End Site
                    {
                      OFFSET 4.22375 -1.43895 0.606485
                    }
                  }
                  JOINT Bip001_L_Finger1
                  {
                    OFFSET 11.0826 -0.704819 -0.198153
                    CHANNELS 3 Zrotation Xrotation Yrotation
                    End Site
                    {
                      OFFSET 6.20027 -0.397518 -0.0787166
                    }
                  }
                }
              }
            }
          }
          JOINT Bip001_R_Clavicle
          {
            OFFSET -6.06037 -0.000563197 0.00835105
            CHANNELS 3 Zrotation Xrotation Yrotation
            JOINT Bip001_R_UpperArm
            {
              OFFSET -11.5509 -0.0599978 0.00190698
              CHANNELS 3 Zrotation Xrotation Yrotation
              JOINT Bip001_R_Forearm
              {
                OFFSET -25.9523 0.0806822 -2.15589
                CHANNELS 3 Zrotation Xrotation Yrotation
                JOINT Bip001_R_Hand
                {
                  OFFSET -32.2475 0.153859 1.63989
                  CHANNELS 3 Zrotation Xrotation Yrotation
                  JOINT Bip001_R_Finger0
                  {
                    OFFSET -6.04641 -2.20976 5.90317
                    CHANNELS 3 Zrotation Xrotation Yrotation
                    End Site
                    {
                      OFFSET -4.22376 -1.43895 0.60647
                    }
                  }
                  JOINT Bip001_R_Finger1
                  {
                    OFFSET -11.0826 -0.704794 -0.198182
                    CHANNELS 3 Zrotation Xrotation Yrotation
                    End Site
                    {
                      OFFSET -6.20028 -0.397504 -0.0787333
                    }
                  }
                }
              }
            }
          }
          JOINT Bip001_Head
          {
            OFFSET 1.09673e-005 11.2744 2.05948
            CHANNELS 3 Zrotation Xrotation Yrotation
            End Site
            {
              OFFSET 2.89576e-005 20.8808 -2.77728e-005
            }
          }
        }
      }
    }
  }
}
MOTION
Frames:	12
Frame Time:	0.04
31.2154 90.3247 -31.8019 0.820139 -6.3712 -3.87473 0.250917 3.78948 -0.817634 10.0212 -10.8105 9.91633 -5.65448 35.3139 4.60134 10.3927 -12.1621 0.602132 2.70897 -9.8449 -0.663425 -4.926 -15.7012 4.24553 4.35487 40.9188 1.8567 -15.3354 -17.9022 -8.95943 3.80528 -12.313 4.1234 0.557969 7.57491 -1.65739 0.557973 7.57493 -1.6574 7.15091 -9.44081 1.6694 -28.6621 11.4214 -1.843 -47.7242 43.6096 -5.71272 13.6465 2.48881 -21.7075 6.31456 1.75946 -5.395 3.18055e-015 -3.18055e-015 -0 -0 -3.18056e-015 -0 22.6113 17.0743 16.7892 50.4762 18.8294 -7.40349 -31.8948 37.8086 19.6324 -21.1192 -8.09318 5.47465 -3.18055e-015 -3.18055e-015 -3.18055e-015 -3.18055e-015 -4.77083e-015 -1.59028e-015 -3.76117 -6.50031 3.80492 
30.66 89.852 -31.8351 0.399461 -6.7225 -5.22813 0.349035 3.92918 -0.993138 11.1414 -10.7683 10.5855 -6.64111 36.6925 5.92452 10.963 -12.6372 0.681498 3.11829 -10.3916 -0.90952 -3.92047 -16.5048 6.94243 5.74907 42.4408 0.94271 -16.0589 -18.3097 -10.0984 3.74146 -12.1451 4.07002 0.769231 7.85162 -2.01744 0.769232 7.85164 -2.01744 7.23032 -8.56115 2.98877 -27.955 11.231 -3.41054 -49.0174 43.0586 -5.85221 13.5072 1.67355 -20.3368 6.21355 1.9707 -4.62531 8.82781e-032 3.18055e-015 -1.59028e-015 0 0 -0 22.7192 15.7724 15.9303 50.3808 21.2709 -8.32343 -19.4185 31.4007 13.6764 -9.70911 -6.09331 4.91019 1.59028e-015 -6.36111e-015 -7.95139e-016 3.18055e-015 -3.18056e-015 1.59028e-015 -3.5759 -7.24497 5.11221 
30.2197 89.6733 -31.7212 0.309407 -7.18912 -6.16088 0.388799 4.12556 -1.11587 11.3822 -10.2324 11.1525 -6.58916 36.9268 5.99279 11.5558 -12.318 0.6734 3.13605 -10.7723 -0.810618 -3.53199 -16.5673 7.55469 5.83643 43.051 1.00238 -16.3549 -18.804 -10.091 3.7341 -12.1442 4.08337 0.861592 8.24253 -2.26874 0.861594 8.24246 -2.26874 7.08694 -8.99354 3.95089 -27.5834 12.1302 -4.41337 -49.7174 41.8299 -5.58265 13.4025 0.450596 -20.6524 5.89094 2.35154 -3.65165 3.18055e-015 0 -0 -8.82782e-032 -3.18056e-015 -1.59028e-015 22.9164 15.6015 14.4434 52.875 25.7945 -11.3456 -16.5272 23.9615 12.3267 0.786978 -5.95864 3.61075 1.2921e-015 -3.18055e-015 1.56543e-015 8.44835e-016 -6.36111e-015 6.21202e-016 -3.3855 -7.0877 5.9518 
29.7988 89.6208 -31.6773 0.268213 -7.07665 -6.58208 0.454538 4.10199 -1.26561 11.6962 -10.1983 10.4393 -7.28178 37.0813 7.04239 10.0386 -13.144 0.674475 2.52525 -10.2112 -0.285723 -3.23869 -16.7912 8.06379 6.14385 43.2848 1.00249 -16.5474 -18.9491 -10.3195 3.6954 -12.0463 4.07679 1.00394 8.19277 -2.57382 1.00394 8.1928 -2.57382 7.06615 -8.92769 4.79905 -27.4052 12.5008 -5.33815 -50.6212 41.1914 -4.70149 13.3896 -1.01085 -21.8119 6.14638 2.16003 -3.41685 -3.18055e-015 0 -0 -3.18055e-015 3.18056e-015 -0 22.7358 14.7451 12.4965 56.2438 27.7804 -14.3806 -17.0295 21.861 12.2716 0.701811 -5.81919 3.43011 1.98785e-015 -3.18055e-015 1.39149e-015 1.59028e-015 3.18056e-015 -1.98785e-016 -3.60133 -7.25318 6.80971 
29.3455 89.5826 -31.5441 0.00180446 -7.33574 -6.49897 0.547108 4.07899 -1.47873 12.4474 -9.75562 9.43359 -8.68845 37.0641 8.58312 9.5049 -13.5982 0.675266 2.58832 -9.9712 -0.371909 -2.6798 -16.3105 8.04921 5.79915 43.2974 1.12405 -16.6462 -19.1218 -10.2959 3.67593 -12.0052 4.07011 1.20444 8.14223 -3.00798 1.20445 8.14226 -3.00799 7.37935 -8.11115 5.71637 -27.325 12.1116 -6.26822 -51.7489 41.2095 -3.60903 13.3806 -2.73677 -23.1468 6.2741 2.00792 -3.81566 8.82781e-032 3.18055e-015 -1.59028e-015 -3.18055e-015 3.18056e-015 -0 22.1752 13.0638 10.2761 59.992 28.5292 -17.5415 -20.4795 20.1082 12.5109 -1.06396 -6.82596 4.37375 1.39149e-015 9.54166e-015 2.98177e-016 7.95139e-016 3.18056e-015 1.59028e-015 -4.40773 -8.00075 7.94542 
29.0619 89.4505 -31.4782 0.000268717 -7.3172 -6.29823 0.596993 3.96386 -1.68042 12.8298 -9.79831 8.91178 -9.48102 37.4728 9.3841 8.69448 -14.364 0.677142 2.41996 -9.61182 -0.240833 -2.46425 -16.3158 8.70075 6.3937 43.688 0.87838 -16.9917 -19.2638 -11.0365 3.63197 -11.8713 4.02293 1.31799 7.90821 -3.4146 1.31539 7.90823 -3.41455 7.55542 -7.53332 6.65213 -27.0622 11.8929 -6.98445 -52.7736 41.2287 -2.61438 13.6455 -3.38566 -24.4864 6.87565 2.05909 -4.74088 3.18055e-015 0 -0 3.18055e-015 3.18056e-015 -0 22.2937 11.3019 6.95466 62.2189 28.5748 -19.5766 -25.2707 18.4768 12.9711 -1.78861 -8.8343 5.81804 1.09332e-015 9.54166e-015 1.09332e-015 3.97569e-016 6.36111e-015 -1.19271e-015 -5.16896 -8.25829 9.05241 
28.8091 89.2016 -31.4543 0.0949009 -7.14284 -6.12161 0.641241 3.80043 -1.83551 12.8988 -10.2312 9.31611 -9.02887 38.4225 8.69947 8.37227 -14.6773 0.677914 2.27072 -9.58008 -0.0638451 -2.22361 -16.6996 9.59755 7.10959 44.5451 0.403907 -17.4898 -19.4413 -11.8712 3.61689 -11.8103 3.95801 1.41147 7.57794 -3.72589 1.41218 7.57778 -3.72623 7.53757 -6.77491 7.58886 -26.4277 11.4972 -7.96151 -53.9586 41.032 -1.78795 15.3892 -1.48497 -25.9573 6.81248 2.43861 -4.00512 3.18055e-015 3.18055e-015 -1.59028e-015 6.36111e-015 0 -1.59028e-015 21.7851 9.00087 2.77105 61.733 24.3961 -17.6954 -28.6775 18.9275 14.5032 -2.30534 -9.97745 7.48947 -1.19271e-015 -9.54166e-015 1.59028e-015 1.19271e-015 -6.36111e-015 1.98785e-015 -5.74697 -8.91497 10.0951 
28.5183 88.8847 -31.257 -0.0754099 -7.51378 -5.64149 0.709347 3.80442 -2.0185 13.322 -10.3018 10.3308 -8.25042 39.7067 7.09867 8.15774 -15.2855 0.701923 2.29137 -9.52065 -0.0778038 -1.83922 -16.4982 9.90927 7.52551 45.4354 0.00594098 -17.958 -19.8014 -12.5553 3.60901 -11.7838 3.94749 1.55347 7.58092 -4.0976 1.55592 7.5808 -4.09748 7.59614 -6.48686 8.51414 -25.7309 11.5588 -8.99152 -54.7605 40.2759 -1.03633 16.6838 -0.567996 -27.6057 6.87098 2.43138 -4.38316 6.36111e-015 1.59028e-015 -3.18055e-015 3.18055e-015 1.59028e-015 -4.77083e-015 21.398 7.25228 -1.38545 59.6762 15.6459 -14.6413 -31.5738 17.9904 18.0223 -4.64356 -11.4716 7.95051 6.36111e-015 -3.18055e-015 3.18055e-015 5.56597e-015 0 3.18055e-015 -6.43157 -9.38123 11.1185 
28.3163 88.5974 -31.1248 -0.349142 -7.76486 -5.2814 0.768046 3.78468 -2.20461 13.9085 -10.4303 10.5079 -8.39212 40.8091 6.7255 7.95103 -15.9142 0.727803 2.24551 -9.45671 -0.0352186 -1.50172 -16.4117 10.4175 8.47285 46.1234 -0.407269 -18.538 -19.9068 -13.5508 3.59547 -11.7137 3.90876 1.68729 7.53654 -4.47456 1.68729 7.53657 -4.47457 7.66647 -6.28103 9.52886 -25.1304 11.6608 -9.79149 -55.4057 39.2579 -0.0581838 17.5489 -0.981866 -29.7357 6.80767 2.63791 -4.06215 4.41391e-032 -1.59028e-015 1.59028e-015 -0 -3.18056e-015 -0 21.3944 6.08041 -4.10562 57.4507 1.67282 -12.8259 -34.1622 14.9934 25.6823 -13.6068 -11.1485 7.00267 -2.78298e-015 3.18055e-015 -0 -1.98785e-015 1.59028e-015 -0 -7.07698 -9.58325 12.2303 
28.1978 88.3316 -30.928 -0.726363 -8.24948 -4.95494 0.835288 3.76077 -2.35403 14.6185 -10.2776 11.6553 -7.80818 42.1511 5.28816 6.90439 -17.1742 0.714317 2.17162 -8.89633 -0.0955207 -1.20204 -15.8989 10.3768 8.77875 46.606 -0.84686 -18.7729 -20.297 -13.7173 3.6091 -11.798 3.9495 1.83093 7.48355 -4.77825 1.83093 7.48357 -4.77826 7.40376 -5.9433 10.4654 -24.6596 11.5731 -10.3118 -55.6765 38.5536 1.01695 18.8233 -0.682534 -31.7494 7.29138 2.61852 -3.54814 0 0 -1.59028e-015 8.82782e-032 3.18056e-015 -1.59028e-015 20.8368 4.92851 -6.43443 56.9295 -12.4571 -11.9536 -34.7622 8.74868 37.2599 -22.6036 -7.52862 4.10517 3.18055e-015 0 -0 4.37326e-015 -1.59028e-015 -0 -7.51562 -9.80072 13.164 
28.2178 88.2558 -30.719 -1.21297 -8.79691 -4.77597 0.869843 3.73351 -2.4087 14.952 -9.84942 13.0918 -6.11785 42.9336 3.17091 6.50514 -17.7444 0.713215 2.2504 -8.72243 -0.239534 -1.16286 -15.0528 9.81598 9.03941 46.4588 -0.838487 -18.8052 -20.5384 -13.5986 3.60777 -11.781 3.94901 1.90278 7.42596 -4.88943 1.90279 7.42596 -4.88945 7.4394 -5.86945 11.1506 -24.1754 11.5863 -10.517 -56.1149 38.2357 2.05925 19.886 -0.254409 -33.2845 9.74774 3.1985 -4.41898 6.36111e-015 -4.77083e-015 -1.59028e-015 6.36111e-015 -7.95139e-015 -1.59028e-015 20.3822 4.63974 -7.19036 54.0142 -26.8415 -11.7516 -41.9555 11.6609 50.6979 -24.3273 -9.61572 5.60474 7.15625e-015 3.18055e-015 -1.59028e-015 3.97569e-015 0 -1.59028e-015 -7.87373 -9.47088 13.9128 
28.5757 88.3844 -30.5451 -1.26526 -9.31688 -4.61729 0.779637 3.65081 -2.29044 14.2058 -9.27872 12.993 -4.60634 42.7827 2.2233 6.42643 -17.5814 0.688455 2.22019 -8.7951 -0.175755 -1.55445 -14.0425 8.3507 7.9678 46.0089 0.202502 -18.5124 -20.6042 -12.9339 3.67778 -11.9905 4.04089 1.71032 7.26703 -4.64461 1.71033 7.26706 -4.64462 7.53017 -5.56193 11.1991 -24.1762 11.3483 -10.8023 -56.1559 37.849 2.95765 19.9488 -0.545998 -34.2338 11.7113 3.32206 -5.31665 -6.36111e-015 -1.59028e-015 -0 -9.54166e-015 -4.77083e-015 1.59028e-015 19.6337 4.70275 -6.28129 49.0575 -38.9207 -11.2571 -45.8783 13.9427 62.7094 -25.0007 -12.6102 6.94986 -3.18055e-015 0 -0 -3.18055e-015 3.18056e-015 -0 -7.92613 -9.10545 14.0418 
